HIERARCHY
ROOT hip
{
	OFFSET 0.000000 0.000000 0.000000 
	CHANNELS 6 Xposition Yposition Zposition Xrotation Zrotation Yrotation
	JOINT abdomen
	{
		OFFSET 0.000000 3.402643 0.000000 
		CHANNELS 3 Xrotation Zrotation Yrotation
		JOINT chest
		{
			OFFSET 0.000000 8.438565 -0.680529 
			CHANNELS 3 Xrotation Zrotation Yrotation
			JOINT neck
			{
				OFFSET 0.000000 10.207942 -0.272212 
				CHANNELS 3 Xrotation Zrotation Yrotation
				JOINT head
				{
					OFFSET 0.000000 3.130431 0.000000 
					CHANNELS 3 Xrotation Zrotation Yrotation
					End Site
					{
						OFFSET 0.000000 3.130435 0.000000 
					}
				}
			}
			JOINT lCollar
			{
				OFFSET 3.470700 6.669187 -0.816635 
				CHANNELS 3 Yrotation Zrotation Xrotation
				JOINT lShldr
				{
					OFFSET 3.198488 0.000000 0.000000 
					CHANNELS 3 Zrotation Yrotation Xrotation
					JOINT lForeArm
					{
						OFFSET 10.139888 0.000000 0.000000 
						CHANNELS 3 Yrotation Zrotation Xrotation
						JOINT lHand
						{
							OFFSET 8.370511 0.000000 0.000000 
							CHANNELS 3 Zrotation Yrotation Xrotation
							End Site
							{
								OFFSET 4.083176 0.000000 0.000000 
							}
						}
					}
				}
			}
			JOINT rCollar
			{
				OFFSET -3.470700 6.669187 -0.816635 
				CHANNELS 3 Yrotation Zrotation Xrotation
				JOINT rShldr
				{
					OFFSET -3.198488 0.000000 0.000000 
					CHANNELS 3 Zrotation Yrotation Xrotation
					JOINT rForeArm
					{
						OFFSET -10.139888 0.000000 0.000000 
						CHANNELS 3 Yrotation Zrotation Xrotation
						JOINT rHand
						{
							OFFSET -8.370511 0.000000 0.000000 
							CHANNELS 3 Zrotation Yrotation Xrotation
							End Site
							{
								OFFSET -4.083176 0.000000 0.000000 
							}
						}
					}
				}
			}
		}
	}
	JOINT lThigh
	{
		OFFSET 5.308129 -1.633274 1.361059 
		CHANNELS 3 Xrotation Zrotation Yrotation
		JOINT lShin
		{
			OFFSET -2.041588 -20.007561 0.000000 
			CHANNELS 3 Xrotation Zrotation Yrotation
			JOINT lFoot
			{
				OFFSET 0.000000 -19.190928 -1.224953 
				CHANNELS 3 Xrotation Yrotation Zrotation
				End Site
				{
					OFFSET 0.000000 -2.449906 4.627600 
				}
			}
		}
	}
	JOINT rThigh
	{
		OFFSET -5.308129 -1.633274 1.361059 
		CHANNELS 3 Xrotation Zrotation Yrotation
		JOINT rShin
		{
			OFFSET 2.041588 -20.007561 0.000000 
			CHANNELS 3 Xrotation Zrotation Yrotation
			JOINT rFoot
			{
				OFFSET 0.000000 -19.190928 -1.224953 
				CHANNELS 3 Xrotation Yrotation Zrotation
				End Site
				{
					OFFSET 0.000000 -2.449906 4.627600 
				}
			}
		}
	}
}
MOTION
Frames: 12
Frame Time: 0.033333
0.091725 23.539377 0.091725 -4.972536 -1.989334 -28.186794 13.174534 14.584741 -18.966320 -0.019531 0.000000 -0.019531 -8.544922 -0.001505 -0.009645 20.775484 18.026701 45.639481 2.000000 -2.000000 0.000000 -4.749658 -58.193546 -51.999947 -55.673222 -0.551803 8.634238 -59.834553 -28.730053 -140.793961 -2.000000 2.000000 0.000000 136.264786 40.173939 75.828133 65.336670 0.520452 8.728421 3.625089 -37.797138 -28.504393 -127.582565 41.092270 -19.974823 119.572472 4.458199 -3.507665 1.863207 7.240037 4.813559 -22.713694 -36.815800 17.546686 125.608978 -4.859124 3.203868 -20.567850 27.496843 37.557995 
0.091725 24.025198 0.091725 -5.138930 -2.105717 -29.342434 12.723898 15.098625 -19.792791 -0.019531 0.000000 -0.019531 -8.544922 -0.001505 -0.009645 21.251898 17.497999 46.462162 2.000000 -2.000000 0.000000 -16.223297 -55.078918 -40.690735 -72.107887 -0.513449 8.794402 -54.883492 -20.526285 -149.178207 -2.000000 2.000000 0.000000 122.551437 37.035313 66.843437 80.404434 0.506852 8.880733 7.522719 -40.062241 -31.078936 -126.322754 43.445644 -19.787697 118.204170 4.370488 -3.551488 1.383089 7.274073 5.372270 -25.003595 -37.739906 18.351063 124.992218 -4.802370 3.246453 -13.214679 29.454081 35.080479 
0.091725 24.170456 0.091725 -5.236865 -2.183284 -29.956732 12.483237 15.369853 -20.233921 -0.019531 0.000000 -0.019531 -8.544922 -0.001505 -0.009645 21.518715 17.212847 46.902660 2.000000 -2.000000 0.000000 -19.489206 -52.832970 -37.987957 -75.566826 -0.506009 8.836380 -54.847721 -18.996765 -148.793335 -2.000000 2.000000 0.000000 120.858559 36.050488 66.424599 79.441551 0.509859 8.869415 6.761656 -36.316616 -30.939743 -126.204590 44.529266 -20.205679 118.301620 4.361904 -3.565035 0.756875 7.291895 5.543891 -24.349974 -38.111191 18.178816 123.465393 -4.724837 3.321467 -11.949776 30.224277 34.742004 
0.091725 24.300669 0.091725 -5.256462 -2.202695 -30.159285 12.407441 15.467487 -20.373535 -0.019531 0.000000 -0.019531 -8.544922 -0.001505 -0.009645 21.594852 17.131409 47.045620 2.000000 -2.000000 0.000000 -21.823580 -51.695114 -35.691639 -78.395966 -0.510339 8.860831 -54.578442 -17.576372 -148.405762 -2.000000 2.000000 0.000000 118.321472 34.821430 65.423027 80.100441 0.503755 8.881941 5.513312 -33.490852 -30.472595 -125.819077 44.938000 -20.172184 118.379868 4.381238 -3.552295 0.237477 7.273656 5.506424 -22.911507 -37.835178 17.377846 121.870857 -4.627230 3.391647 -13.582950 30.132475 35.247860 
0.091725 24.425886 0.091725 -5.236862 -2.183289 -29.995794 12.471329 15.386107 -20.251408 -0.019531 0.000000 -0.019531 -8.544922 -0.001505 -0.009645 21.528233 17.202665 46.932747 2.000000 -2.000000 0.000000 -23.574293 -51.469643 -33.479137 -80.765060 -0.504691 8.884073 -54.107445 -16.195669 -148.034515 -2.000000 2.000000 0.000000 115.125229 33.338390 63.957359 81.992599 0.511497 8.896033 3.869560 -31.313847 -29.738289 -125.195999 44.831161 -19.858065 118.477585 4.380168 -3.554112 -0.194418 7.193040 5.301999 -21.219471 -37.401573 16.297348 120.472450 -4.567095 3.432846 -16.086193 29.597347 36.045063 
0.091725 24.526058 0.091725 -5.168293 -2.125106 -29.564215 12.636124 15.203090 -19.951515 -0.019531 0.000000 -0.019531 -8.544922 -0.001505 -0.009645 21.357460 17.395475 46.630009 2.000000 -2.000000 0.000000 -24.941446 -51.935444 -31.290770 -82.759644 -0.510757 8.911212 -53.463120 -14.838534 -147.680145 -2.000000 2.000000 0.000000 111.522835 31.575268 62.284542 84.699844 0.508206 8.935165 1.888306 -29.471958 -28.771721 -124.428810 44.314919 -19.250351 118.536606 4.390064 -3.538024 -0.541941 7.117325 5.008803 -19.711828 -37.241653 15.165993 119.406517 -4.498843 3.478880 -17.321793 29.124504 36.478558 
0.091725 24.626232 0.091725 -5.089973 -2.066914 -28.976589 12.873479 14.938108 -19.526794 -0.019531 0.000000 -0.019531 -8.544922 -0.001505 -0.009645 21.099878 17.670555 46.195698 2.000000 -2.000000 0.000000 -26.087276 -52.861084 -29.019213 -84.467461 -0.514589 8.927054 -52.714184 -13.487825 -147.341812 -2.000000 2.000000 0.000000 107.749481 29.541658 60.582275 87.834702 0.518735 8.956055 -0.342736 -27.749130 -27.614399 -123.562424 43.521717 -18.516254 118.575470 4.392491 -3.543124 -0.854785 7.039972 4.658255 -18.581341 -37.194668 14.162661 118.839264 -4.451295 3.512571 -17.958723 28.612101 36.734436 
0.091725 24.726404 0.091725 -4.992070 -1.989292 -28.293537 13.126449 14.630837 -19.042337 -0.019531 0.000000 -0.019531 -8.544922 -0.001505 -0.009645 20.813095 17.976370 45.710045 2.000000 -2.000000 0.000000 -23.382046 -54.169296 -32.273026 -79.042091 -0.512561 8.866940 -53.740051 -17.452827 -145.890320 -2.000000 2.000000 0.000000 112.200943 31.555576 62.752869 84.807182 0.511701 8.936654 -0.773293 -30.775105 -26.883480 -122.698654 42.585907 -17.783102 118.663719 4.399745 -3.531474 -1.148557 6.943232 4.245046 -17.689928 -36.810925 13.348959 118.731720 -4.469680 3.502146 -19.683445 27.615335 37.166393 
0.091725 24.821569 0.091725 -4.864898 -1.921453 -27.610371 13.387679 14.322933 -18.560509 -0.019531 0.000000 -0.019531 -8.544922 -0.001505 -0.009645 20.526344 18.291901 45.210617 2.000000 -2.000000 0.000000 -20.050600 -55.809536 -35.835907 -73.031227 -0.510181 8.809738 -54.894936 -21.326515 -144.226807 -2.000000 2.000000 0.000000 116.824142 33.526211 65.099197 81.459328 0.510954 8.888598 -1.209826 -33.519596 -26.241390 -121.858292 41.609203 -17.042486 118.712593 4.399741 -3.531336 -1.463620 6.862229 3.827518 -17.018105 -36.207355 12.784249 118.927650 -4.461208 3.496040 -22.049862 26.276621 37.622730 
0.091725 24.926741 0.091725 -4.796361 -1.853432 -26.993366 13.611207 14.044595 -18.136042 -0.019531 0.000000 -0.019531 -8.544922 -0.001505 -0.009645 20.266420 18.557850 44.789272 2.000000 -2.000000 0.000000 -16.051716 -57.510868 -39.893414 -66.487633 -0.525296 8.733686 -56.314850 -25.100973 -142.233261 -2.000000 2.000000 0.000000 121.880310 35.461517 67.840637 77.448830 0.503658 8.855904 -1.542539 -35.833759 -25.731228 -121.071960 40.777599 -16.412321 118.780434 4.411097 -3.540663 -1.781160 6.817864 3.466217 -16.605240 -35.481407 12.463706 119.308708 -4.480646 3.490477 -24.656361 24.765558 38.009075 
0.091725 25.026920 0.091725 -4.718100 -1.804915 -26.579981 13.771290 13.860591 -17.837305 -0.019531 0.000000 -0.019531 -8.544922 -0.001505 -0.009645 20.082983 18.742212 44.470585 2.000000 -2.000000 0.000000 -11.386330 -59.010040 -44.554108 -59.429756 -0.539093 8.666624 -58.114227 -28.731556 -139.825943 -2.000000 2.000000 0.000000 127.664635 37.358265 71.176048 72.312042 0.508636 8.807074 -1.604777 -37.438942 -25.529573 -120.409569 40.201981 -15.927643 118.848869 4.411184 -3.540288 -2.161892 6.751483 3.182968 -16.452114 -34.743217 12.409101 119.777901 -4.528155 3.465662 -27.188135 23.296473 38.277031 
0.091725 25.132093 0.091725 -4.698546 -1.795208 -26.415377 13.831256 13.772559 -17.730970 -0.019531 0.000000 -0.019531 -8.544922 -0.001505 -0.009645 20.015574 18.813669 44.363846 2.000000 -2.000000 0.000000 -6.100890 -60.103054 -49.779713 -51.841244 -0.578476 8.597901 -60.431923 -32.219894 -136.855972 -2.000000 2.000000 0.000000 134.562103 39.081596 75.422203 65.505203 0.519734 8.730457 -1.334574 -38.051262 -25.679319 -119.849930 40.106346 -15.658325 118.937523 4.419317 -3.517665 -2.622112 6.645806 3.035236 -16.549187 -34.243992 12.642080 120.188667 -4.529510 3.460311 -29.265295 22.240116 38.360260 
